<svg width="11" height="18" viewBox="0 0 11 18" fill="none" xmlns="http://www.w3.org/2000/svg">
<path d="M4.44918 10.4341C3.7867 10.2083 3.18444 9.98243 2.64241 9.75659C2.10038 9.51568 1.63363 9.22961 1.24216 8.89837C0.85069 8.56713 0.542033 8.17566 0.316186 7.72396C0.105395 7.25721 0 6.6926 0 6.03011C0 5.00627 0.316186 4.14805 0.948557 3.45546C1.58093 2.7478 2.48432 2.266 3.65872 2.01004V0.180677C3.79423 0.150564 4.00502 0.112923 4.29109 0.0677531C4.57716 0.0225843 4.87077 0 5.17189 0C5.7591 0 6.21832 0.105395 6.54956 0.316186C6.8808 0.511919 7.04642 0.941028 7.04642 1.60351V1.89711C7.97992 2.01757 8.72522 2.25847 9.28231 2.61982C9.85445 2.98118 10.1405 3.47804 10.1405 4.11041C10.1405 4.50188 10.0502 4.84065 9.86951 5.12672C9.68883 5.39774 9.47051 5.63112 9.21455 5.82685C8.88331 5.61606 8.43915 5.43538 7.88206 5.28482C7.32497 5.1192 6.71518 5.03639 6.0527 5.03639C5.37516 5.03639 4.87829 5.13425 4.56211 5.32999C4.24592 5.51066 4.08783 5.74404 4.08783 6.03011C4.08783 6.25596 4.1857 6.44417 4.38143 6.59473C4.57716 6.73024 4.87077 6.85822 5.26223 6.97867L6.45922 7.36261C7.87453 7.8143 8.95859 8.39398 9.71142 9.10163C10.4793 9.79423 10.8632 10.7428 10.8632 11.9473C10.8632 12.9711 10.5395 13.8444 9.89209 14.5671C9.24467 15.2748 8.29611 15.7566 7.04642 16.0125V17.8193C6.91092 17.8494 6.70013 17.8871 6.41405 17.9322C6.12798 17.9774 5.83438 18 5.53325 18C4.94605 18 4.48683 17.8946 4.15558 17.6838C3.82434 17.4881 3.65872 17.059 3.65872 16.3965V16.1706C3.11669 16.1104 2.61982 16.0125 2.16813 15.877C1.73149 15.7415 1.34755 15.5684 1.01631 15.3576C0.700125 15.1468 0.451694 14.8984 0.271016 14.6123C0.0903387 14.3262 0 14.0025 0 13.6412C0 13.2045 0.12798 12.8356 0.38394 12.5345C0.6399 12.2183 0.918444 11.9774 1.21957 11.8118C1.64115 12.143 2.15307 12.4291 2.75533 12.67C3.37265 12.9109 4.04266 13.0314 4.76537 13.0314C5.50314 13.0314 6.02258 12.9184 6.32371 12.6926C6.62484 12.4667 6.77541 12.2033 6.77541 11.9021C6.77541 11.601 6.65496 11.3752 6.41405 11.2246C6.17315 11.059 5.83438 10.9009 5.39774 10.7503L4.44918 10.4341Z" fill="#890000"/>
</svg>
