<svg width="15" height="18" viewBox="0 0 15 18" fill="none" xmlns="http://www.w3.org/2000/svg">
<path fill-rule="evenodd" clip-rule="evenodd" d="M2.18392 2.18377C3.58217 0.785524 5.47859 0 7.456 0C9.43341 0 11.3298 0.785524 12.7281 2.18377C14.1263 3.58201 14.9118 5.47843 14.9118 7.45584C14.9118 9.43326 14.1263 11.3297 12.7281 12.7279L7.456 18L2.18392 12.7279C1.49154 12.0356 0.942306 11.2137 0.567586 10.3091C0.192866 9.40451 0 8.43497 0 7.45584C0 6.47672 0.192866 5.50717 0.567586 4.60259C0.942306 3.698 1.49154 2.87608 2.18392 2.18377ZM7.456 9.58598C8.02095 9.58598 8.56276 9.36155 8.96223 8.96208C9.36171 8.5626 9.58613 8.02079 9.58613 7.45584C9.58613 6.8909 9.36171 6.34909 8.96223 5.94961C8.56276 5.55014 8.02095 5.32571 7.456 5.32571C6.89106 5.32571 6.34925 5.55014 5.94977 5.94961C5.55029 6.34909 5.32587 6.8909 5.32587 7.45584C5.32587 8.02079 5.55029 8.5626 5.94977 8.96208C6.34925 9.36155 6.89106 9.58598 7.456 9.58598Z" fill="#890000"/>
</svg>
